<svg width="43" height="49" viewBox="0 0 43 49" fill="none" xmlns="http://www.w3.org/2000/svg">
<mask id="path-1-inside-1_15_329" fill="white">
<path d="M29.498 28.595C26.7984 28.595 25.5003 30.1 21.07 30.1C16.6397 30.1 15.351 28.595 12.642 28.595C5.66256 28.595 0 34.2576 0 41.237V43.645C0 46.1377 2.02234 48.16 4.515 48.16H37.625C40.1177 48.16 42.14 46.1377 42.14 43.645V41.237C42.14 34.2576 36.4774 28.595 29.498 28.595ZM37.625 43.645H4.515V41.237C4.515 36.7596 8.16462 33.11 12.642 33.11C14.0153 33.11 16.2446 34.615 21.07 34.615C25.933 34.615 28.1153 33.11 29.498 33.11C33.9754 33.11 37.625 36.7596 37.625 41.237V43.645ZM21.07 27.09C28.548 27.09 34.615 21.023 34.615 13.545C34.615 6.06703 28.548 0 21.07 0C13.592 0 7.525 6.06703 7.525 13.545C7.525 21.023 13.592 27.09 21.07 27.09ZM21.07 4.515C26.0459 4.515 30.1 8.56909 30.1 13.545C30.1 18.5209 26.0459 22.575 21.07 22.575C16.0941 22.575 12.04 18.5209 12.04 13.545C12.04 8.56909 16.0941 4.515 21.07 4.515Z"/>
</mask>
<path d="M29.498 28.595C26.7984 28.595 25.5003 30.1 21.07 30.1C16.6397 30.1 15.351 28.595 12.642 28.595C5.66256 28.595 0 34.2576 0 41.237V43.645C0 46.1377 2.02234 48.16 4.515 48.16H37.625C40.1177 48.16 42.14 46.1377 42.14 43.645V41.237C42.14 34.2576 36.4774 28.595 29.498 28.595ZM37.625 43.645H4.515V41.237C4.515 36.7596 8.16462 33.11 12.642 33.11C14.0153 33.11 16.2446 34.615 21.07 34.615C25.933 34.615 28.1153 33.11 29.498 33.11C33.9754 33.11 37.625 36.7596 37.625 41.237V43.645ZM21.07 27.09C28.548 27.09 34.615 21.023 34.615 13.545C34.615 6.06703 28.548 0 21.07 0C13.592 0 7.525 6.06703 7.525 13.545C7.525 21.023 13.592 27.09 21.07 27.09ZM21.07 4.515C26.0459 4.515 30.1 8.56909 30.1 13.545C30.1 18.5209 26.0459 22.575 21.07 22.575C16.0941 22.575 12.04 18.5209 12.04 13.545C12.04 8.56909 16.0941 4.515 21.07 4.515Z" fill="#333333"/>
<path d="M37.625 43.645V48.925H42.905V43.645H37.625ZM4.515 43.645H-0.765V48.925H4.515V43.645ZM29.498 23.315C27.163 23.315 25.2742 24.0243 24.372 24.3035C23.459 24.5861 22.5788 24.82 21.07 24.82V35.38C23.9915 35.38 25.9756 34.8614 27.494 34.3915C29.0233 33.9182 29.1334 33.875 29.498 33.875V23.315ZM21.07 24.82C19.5618 24.82 18.6845 24.5864 17.7729 24.304C16.8677 24.0236 14.9815 23.315 12.642 23.315V33.875C13.0115 33.875 13.1241 33.9189 14.6481 34.3911C16.1656 34.8611 18.1478 35.38 21.07 35.38V24.82ZM12.642 23.315C2.7465 23.315 -5.28 31.3415 -5.28 41.237H5.28C5.28 37.1736 8.57863 33.875 12.642 33.875V23.315ZM-5.28 41.237V43.645H5.28V41.237H-5.28ZM-5.28 43.645C-5.28 49.0537 -0.89372 53.44 4.515 53.44V42.88C4.93841 42.88 5.28 43.2216 5.28 43.645H-5.28ZM4.515 53.44H37.625V42.88H4.515V53.44ZM37.625 53.44C43.0337 53.44 47.42 49.0537 47.42 43.645H36.86C36.86 43.2216 37.2016 42.88 37.625 42.88V53.44ZM47.42 43.645V41.237H36.86V43.645H47.42ZM47.42 41.237C47.42 31.3415 39.3935 23.315 29.498 23.315V33.875C33.5614 33.875 36.86 37.1736 36.86 41.237H47.42ZM37.625 38.365H4.515V48.925H37.625V38.365ZM9.795 43.645V41.237H-0.765V43.645H9.795ZM9.795 41.237C9.795 39.6757 11.0807 38.39 12.642 38.39V27.83C5.24856 27.83 -0.765 33.8436 -0.765 41.237H9.795ZM12.642 38.39C12.1513 38.39 11.9017 38.2723 12.3635 38.4087C12.4634 38.4383 13.5508 38.7812 14.1263 38.9437C15.807 39.4184 18.0627 39.895 21.07 39.895V29.335C19.2519 29.335 17.9802 29.0591 16.9966 28.7813C16.24 28.5676 16.2109 28.5342 15.3558 28.2816C14.8626 28.1358 13.8194 27.83 12.642 27.83V38.39ZM21.07 39.895C24.0935 39.895 26.3477 39.4193 28.0301 38.9421C28.6028 38.7796 29.6924 38.4341 29.7851 38.4066C30.2377 38.2722 29.9876 38.39 29.498 38.39V27.83C28.3171 27.83 27.2757 28.136 26.7783 28.2837C25.9209 28.5384 25.9018 28.5691 25.1481 28.7829C24.178 29.0582 22.9096 29.335 21.07 29.335V39.895ZM29.498 38.39C31.0593 38.39 32.345 39.6757 32.345 41.237H42.905C42.905 33.8436 36.8914 27.83 29.498 27.83V38.39ZM32.345 41.237V43.645H42.905V41.237H32.345ZM21.07 32.37C31.464 32.37 39.895 23.939 39.895 13.545H29.335C29.335 18.1069 25.6319 21.81 21.07 21.81V32.37ZM39.895 13.545C39.895 3.15097 31.464 -5.28 21.07 -5.28V5.28C25.6319 5.28 29.335 8.9831 29.335 13.545H39.895ZM21.07 -5.28C10.676 -5.28 2.245 3.15097 2.245 13.545H12.805C12.805 8.9831 16.5081 5.28 21.07 5.28V-5.28ZM2.245 13.545C2.245 23.939 10.676 32.37 21.07 32.37V21.81C16.5081 21.81 12.805 18.1069 12.805 13.545H2.245ZM21.07 9.795C23.1298 9.795 24.82 11.4852 24.82 13.545H35.38C35.38 5.65303 28.962 -0.765 21.07 -0.765V9.795ZM24.82 13.545C24.82 15.6048 23.1298 17.295 21.07 17.295V27.855C28.962 27.855 35.38 21.437 35.38 13.545H24.82ZM21.07 17.295C19.0102 17.295 17.32 15.6048 17.32 13.545H6.76C6.76 21.437 13.178 27.855 21.07 27.855V17.295ZM17.32 13.545C17.32 11.4852 19.0102 9.795 21.07 9.795V-0.765C13.178 -0.765 6.76 5.65303 6.76 13.545H17.32Z" fill="#333333" mask="url(#path-1-inside-1_15_329)"/>
</svg>