<svg width="53" height="53" viewBox="0 0 53 53" fill="none" xmlns="http://www.w3.org/2000/svg">
<path d="M7.27064 22.8945C7.96102 22.9842 8.65877 22.7961 9.2104 22.3714C9.76204 21.9466 10.1224 21.3202 10.2121 20.6298C10.3019 19.9394 10.1137 19.2417 9.68897 18.6901C9.26427 18.1384 8.63782 17.7781 7.94744 17.6883L3.36603 16.543C3.03202 16.4406 2.68082 16.4065 2.33335 16.4427C1.98588 16.4789 1.64925 16.5847 1.34352 16.7537C1.03779 16.9227 0.769209 17.1516 0.55379 17.4266C0.33837 17.7017 0.180516 18.0172 0.0896308 18.3546C-0.00125396 18.6919 -0.0233094 19.044 0.0247793 19.3901C0.072868 19.7361 0.190117 20.0689 0.369539 20.3687C0.548961 20.6684 0.786886 20.929 1.06914 21.1348C1.35139 21.3407 1.67219 21.4877 2.01243 21.5669L6.59384 22.7904C6.81192 22.8631 7.04077 22.8984 7.27064 22.8945ZM17.3185 8.34332C17.471 8.91121 17.8114 9.41072 18.284 9.7605C18.7567 10.1103 19.3339 10.2897 19.9216 10.2696C20.1457 10.3056 20.3742 10.3056 20.5984 10.2696C21.2591 10.0868 21.821 9.6508 22.1622 9.05622C22.5033 8.46163 22.5962 7.75647 22.4205 7.09384L21.1971 2.51243C21.1178 2.17219 20.9709 1.85139 20.765 1.56914C20.5591 1.28689 20.2986 1.04896 19.9988 0.869539C19.6991 0.690117 19.3662 0.572868 19.0202 0.524779C18.6742 0.476691 18.322 0.498746 17.9847 0.589631C17.6474 0.680516 17.3318 0.83837 17.0568 1.05379C16.7818 1.26921 16.5529 1.53779 16.3839 1.84352C16.2148 2.14925 16.109 2.48588 16.0728 2.83335C16.0366 3.18082 16.0708 3.53202 16.1732 3.86603L17.3185 8.34332ZM29.8913 34.374C29.6482 34.1181 29.3555 33.9142 29.031 33.775C28.7066 33.6357 28.3572 33.5638 28.0041 33.5638C27.651 33.5638 27.3017 33.6357 26.9772 33.775C26.6528 33.9142 26.3601 34.1181 26.1169 34.374L17.0061 43.641C15.9349 44.6687 14.5079 45.2426 13.0234 45.2426C11.539 45.2426 10.1119 44.6687 9.04073 43.641C8.51341 43.1204 8.09473 42.5003 7.80897 41.8166C7.5232 41.1329 7.37605 40.3993 7.37605 39.6583C7.37605 38.9173 7.5232 38.1837 7.80897 37.5C8.09473 36.8163 8.51341 36.1962 9.04073 35.6756L18.3077 26.5648C18.5802 26.3315 18.8015 26.0443 18.9577 25.7214C19.114 25.3984 19.2018 25.0466 19.2156 24.6882C19.2295 24.3297 19.1691 23.9722 19.0382 23.6381C18.9073 23.3041 18.7088 23.0007 18.4551 22.747C18.2015 22.4933 17.8981 22.2948 17.564 22.164C17.23 22.0331 16.8725 21.9727 16.514 21.9865C16.1555 22.0004 15.8038 22.0882 15.4808 22.2444C15.1579 22.4007 14.8707 22.622 14.6373 22.8945L5.2923 31.9792C4.28046 32.9911 3.47781 34.1923 2.93021 35.5143C2.3826 36.8364 2.10075 38.2534 2.10075 39.6843C2.10075 41.1153 2.3826 42.5322 2.93021 43.8543C3.47781 45.1763 4.28046 46.3776 5.2923 47.3894C6.30415 48.4013 7.50539 49.2039 8.82743 49.7515C10.1495 50.2991 11.5664 50.581 12.9974 50.581C14.4284 50.581 15.8453 50.2991 17.1674 49.7515C18.4894 49.2039 19.6907 48.4013 20.7025 47.3894L29.8913 38.2006C30.1556 37.9568 30.3664 37.661 30.5107 37.3317C30.6549 37.0024 30.7294 36.6468 30.7294 36.2873C30.7294 35.9278 30.6549 35.5722 30.5107 35.2429C30.3664 34.9136 30.1556 34.6178 29.8913 34.374ZM8.36393 12.4822C8.84878 12.9631 9.50319 13.2342 10.1861 13.2371C10.5287 13.2391 10.8683 13.1734 11.1854 13.0439C11.5026 12.9143 11.791 12.7235 12.0343 12.4822C12.5191 11.9945 12.7912 11.3347 12.7912 10.647C12.7912 9.95934 12.5191 9.29959 12.0343 8.81187L8.6763 5.4539C8.17833 5.02745 7.53777 4.80461 6.88264 4.82992C6.22751 4.85522 5.60605 5.12681 5.14246 5.5904C4.67887 6.05399 4.40728 6.67545 4.38198 7.33058C4.35667 7.98571 4.57951 8.62627 5.00597 9.12424L8.36393 12.4822ZM50.2214 31.5627L45.6399 30.3393C45.3004 30.2219 44.9403 30.1761 44.5822 30.2047C44.2242 30.2333 43.8759 30.3358 43.5593 30.5055C43.2427 30.6753 42.9647 30.9088 42.7428 31.1912C42.5208 31.4737 42.3598 31.799 42.2697 32.1467C42.1796 32.4945 42.1625 32.8571 42.2193 33.2118C42.2762 33.5664 42.4059 33.9055 42.6002 34.2076C42.7945 34.5098 43.0493 34.7684 43.3484 34.9673C43.6476 35.1661 43.9846 35.301 44.3384 35.3632L48.9198 36.5867H49.5966C50.287 36.6764 50.9847 36.4882 51.5364 36.0635C52.088 35.6388 52.4483 35.0124 52.5381 34.322C52.6278 33.6316 52.4397 32.9339 52.0149 32.3822C51.5902 31.8306 50.9638 31.4703 50.2734 31.3805L50.2214 31.5627ZM34.9153 44.7863C34.8249 44.4563 34.6704 44.1474 34.4605 43.8771C34.2506 43.6069 33.9895 43.3807 33.6922 43.2115C33.3948 43.0422 33.067 42.9333 32.7274 42.8909C32.3879 42.8484 32.0434 42.8733 31.7135 42.9642C31.0528 43.147 30.4909 43.583 30.1497 44.1776C29.8086 44.7721 29.7157 45.4773 29.8913 46.1399L31.1148 50.7214C31.2673 51.2892 31.6077 51.7888 32.0803 52.1385C32.553 52.4883 33.1302 52.6678 33.7179 52.6476C33.9427 52.6732 34.1698 52.6732 34.3947 52.6476C34.727 52.5601 35.0387 52.4075 35.3119 52.1988C35.585 51.9902 35.814 51.7295 35.9859 51.4318C36.1577 51.1341 36.2689 50.8054 36.313 50.4645C36.3571 50.1237 36.3332 49.7774 36.2428 49.4458L34.9153 44.7863ZM43.8699 40.6995C43.3719 40.2731 42.7313 40.0502 42.0762 40.0755C41.4211 40.1008 40.7996 40.3724 40.336 40.836C39.8724 41.2996 39.6008 41.9211 39.5755 42.5762C39.5502 43.2313 39.7731 43.8719 40.1995 44.3699L43.5575 47.7278C44.0452 48.2126 44.705 48.4848 45.3927 48.4848C46.0803 48.4848 46.7401 48.2126 47.2278 47.7278C47.7126 47.2401 47.9848 46.5803 47.9848 45.8926C47.9848 45.205 47.7126 44.5452 47.2278 44.0575L43.8699 40.6995ZM50.0652 13.5495C50.1056 11.3848 49.4963 9.25779 48.3159 7.44291C47.1354 5.62803 45.4381 4.20865 43.443 3.36801C41.4478 2.52736 39.2465 2.30406 37.1232 2.72692C34.9999 3.14978 33.0521 4.19939 31.5313 5.74024L22.3424 15.0072C22.0963 15.255 21.9014 15.5489 21.7689 15.8721C21.6363 16.1952 21.5687 16.5413 21.5699 16.8906C21.5711 17.2399 21.6411 17.5855 21.7759 17.9077C21.9107 18.23 22.1076 18.5225 22.3555 18.7686C22.6033 19.0147 22.8972 19.2096 23.2203 19.3422C23.5435 19.4747 23.8896 19.5423 24.2389 19.5411C24.5881 19.5399 24.9338 19.4699 25.256 19.3352C25.5782 19.2004 25.8708 19.0034 26.1169 18.7556L35.2276 9.48867C36.2989 8.46095 37.7259 7.8871 39.2104 7.8871C40.6948 7.8871 42.1218 8.46095 43.1931 9.48867C43.7204 10.0093 44.1391 10.6294 44.4248 11.3131C44.7106 11.9967 44.8577 12.7304 44.8577 13.4714C44.8577 14.2124 44.7106 14.946 44.4248 15.6297C44.1391 16.3134 43.7204 16.9335 43.1931 17.4541L33.9261 26.5648C33.4413 27.0525 33.1692 27.7123 33.1692 28.4C33.1692 29.0877 33.4413 29.7474 33.9261 30.2352C34.4138 30.72 35.0736 30.9921 35.7613 30.9921C36.449 30.9921 37.1087 30.72 37.5964 30.2352L46.9415 21.1504C48.9339 19.1209 50.0548 16.3935 50.0652 13.5495Z" fill="#333333"/>
</svg>