<svg width="46" height="46" viewBox="0 0 46 46" fill="none" xmlns="http://www.w3.org/2000/svg">
<path d="M24.4375 28.75C26.8192 28.75 28.75 30.6808 28.75 33.0625V34.5C28.75 40.1678 23.4039 46 14.375 46C5.34609 46 0 40.1678 0 34.5V33.0625C0 30.6808 1.93076 28.75 4.3125 28.75H24.4375ZM24.4375 31.625H4.3125C3.5186 31.625 2.875 32.2687 2.875 33.0625V34.5C2.875 38.6331 6.99246 43.125 14.375 43.125C21.7575 43.125 25.875 38.6331 25.875 34.5V33.0625C25.875 32.2687 25.2313 31.625 24.4375 31.625ZM14.375 10.0625C18.7415 10.0625 22.2812 13.6023 22.2812 17.9688C22.2812 22.3352 18.7415 25.875 14.375 25.875C10.0085 25.875 6.46875 22.3352 6.46875 17.9688C6.46875 13.6023 10.0085 10.0625 14.375 10.0625ZM40.25 0C43.2814 0 45.7648 2.34565 45.9842 5.32088L46 5.75V11.5C46 14.5313 43.6543 17.0147 40.6792 17.2342L40.25 17.25H35.9346L32.4904 21.8494C30.9683 23.8797 27.8774 23.0572 27.3824 20.7697L27.3315 20.4488L27.3148 20.125L27.3125 17.0631L27.0894 17.0065C25.0039 16.3784 23.4174 14.5979 23.0707 12.405L23.0158 11.9291L23 11.5V5.75C23 2.71871 25.3457 0.235261 28.3208 0.0157839L28.75 0H40.25ZM14.375 12.9375C11.5963 12.9375 9.34375 15.1901 9.34375 17.9688C9.34375 20.7474 11.5963 23 14.375 23C17.1537 23 19.4062 20.7474 19.4062 17.9688C19.4062 15.1901 17.1537 12.9375 14.375 12.9375ZM40.25 2.875H28.75C27.2757 2.875 26.0604 3.98486 25.8943 5.41472L25.875 5.75V11.5C25.875 12.9744 26.9848 14.1896 28.4148 14.3557L28.75 14.375H30.1898V20.125L34.5 14.375H40.25C41.7243 14.375 42.9396 13.2651 43.1057 11.8353L43.125 11.5V5.75C43.125 4.27559 42.0153 3.06041 40.5852 2.89435L40.25 2.875Z" fill="#333333"/>
</svg>