<svg width="53" height="46" viewBox="0 0 53 46" fill="none" xmlns="http://www.w3.org/2000/svg">
<path d="M47.0551 3.31787C41.1219 -1.67096 31.9552 -0.921606 26.2786 4.85762C20.602 -0.921606 11.4353 -1.68122 5.50209 3.31787C-2.21724 9.81565 -1.08808 20.4092 4.41399 26.0242L22.4189 44.3679C23.4454 45.4149 24.8209 46 26.2786 46C27.7465 46 29.1117 45.4252 30.1382 44.3781L48.1432 26.0345C53.635 20.4195 54.7847 9.82592 47.0551 3.31787ZM44.6325 22.5649L26.6276 40.9085C26.3812 41.1549 26.1759 41.1549 25.9296 40.9085L7.92464 22.5649C4.17789 18.7463 3.41828 11.5197 8.67399 7.09541C12.6671 3.73873 18.8261 4.24172 22.6858 8.17324L26.2786 11.8379L29.8713 8.17324C33.7515 4.22119 39.9106 3.73873 43.8832 7.08514C49.1286 11.5094 48.3485 18.7771 44.6325 22.5649Z" fill="#333333"/>
</svg>