<svg width="46" height="46" viewBox="0 0 46 46" fill="none" xmlns="http://www.w3.org/2000/svg">
<path d="M21.1912 0.0720575C33.854 -0.924513 44.9271 8.5328 45.9235 21.1956C46.9202 33.8584 37.4628 44.9315 24.8002 45.9279C12.1373 46.9246 1.06422 37.4672 0.0676509 24.8046C0.00351279 23.9896 -0.0145129 23.1139 0.0114184 22.2483C0.0470954 21.058 1.04093 20.1221 2.23121 20.1578C3.42149 20.1934 4.35746 21.1873 4.32178 22.3775C4.30037 23.0923 4.3152 23.8125 4.36666 24.4662C5.17636 34.7548 14.1733 42.4387 24.4618 41.6291C34.7504 40.8193 42.4343 31.8224 41.6247 21.5339C40.8149 11.2454 31.818 3.56133 21.5295 4.37107C16.538 4.76389 12.026 7.10348 8.84463 10.7954L8.25948 11.5081L15.0982 11.5106L15.3908 11.5302C16.4432 11.673 17.2543 12.5751 17.2543 13.6667C17.2543 14.7583 16.4432 15.6604 15.3908 15.8032L15.0982 15.8228H3.59893L3.30635 15.8032C2.3496 15.6734 1.59225 14.916 1.46248 13.9593L1.44278 13.6667V2.16726L1.46248 1.87468C1.59225 0.917956 2.3496 0.160603 3.30635 0.0308027L3.59893 0.0111099L3.8915 0.0308027C4.84826 0.160603 5.60558 0.917956 5.73538 1.87468L5.75507 2.16726L5.75162 7.78114C9.65537 3.35417 15.1406 0.548249 21.1912 0.0720575ZM22.2769 11.5106L22.5695 11.5302C23.5263 11.66 24.2836 12.4174 24.4135 13.3741L24.4331 13.6667V22.9972L29.4641 23L29.7567 23.0196C30.8089 23.1625 31.6202 24.0646 31.6202 25.1562C31.6202 26.2478 30.8089 27.1499 29.7567 27.2928L29.4641 27.3123H22.2769L21.9844 27.2928C21.0276 27.1628 20.2702 26.4056 20.1405 25.4489L20.1208 25.1562V13.6667L20.1405 13.3741C20.2702 12.4174 21.0276 11.66 21.9844 11.5302L22.2769 11.5106Z" fill="#333333"/>
</svg>