<svg width="48" height="52" viewBox="0 0 48 52" fill="none" xmlns="http://www.w3.org/2000/svg">
<path d="M21.2325 1.09241C22.7731 -0.364137 25.183 -0.364137 26.7236 1.09241L46.0798 19.393C47.2775 20.5253 47.9561 22.1008 47.9561 23.7489V46.0055C47.9561 49.3161 45.2721 52 41.9616 52H33.9689C30.6582 52 27.9744 49.3161 27.9744 46.0055V36.0146C27.9744 34.9112 27.0798 34.0166 25.9762 34.0166H21.9799C20.8763 34.0166 19.9817 34.9112 19.9817 36.0146V46.0055C19.9817 49.3161 17.2979 52 13.9872 52H5.99451C2.68382 52 0 49.3161 0 46.0055V23.7489C0 22.1008 0.678579 20.5253 1.8762 19.393L21.2325 1.09241ZM23.978 3.99635L4.62173 22.297C4.22253 22.6744 3.99634 23.1995 3.99634 23.7489V46.0055C3.99634 47.1089 4.89096 48.0037 5.99451 48.0037H13.9872C15.0907 48.0037 15.9854 47.1089 15.9854 46.0055V36.0146C15.9854 32.7041 18.6692 30.0202 21.9799 30.0202H25.9762C29.2869 30.0202 31.9707 32.7041 31.9707 36.0146V46.0055C31.9707 47.1089 32.8655 48.0037 33.9689 48.0037H41.9616C43.065 48.0037 43.9597 47.1089 43.9597 46.0055V23.7489C43.9597 23.1995 43.7336 22.6744 43.3343 22.297L23.978 3.99635Z" fill="#333333"/>
</svg>