<svg width="50" height="46" viewBox="0 0 50 46" fill="none" xmlns="http://www.w3.org/2000/svg">
<path d="M2.64 3.83333C2.64 3.3621 2.79716 2.99247 2.96151 2.79087C3.03843 2.69651 3.10001 2.6581 3.12499 2.64541C3.13015 2.64278 3.13403 2.64108 3.13669 2.64H6.23831C6.24097 2.64108 6.24485 2.64278 6.25001 2.64541C6.27499 2.6581 6.33657 2.69651 6.41349 2.79087C6.57784 2.99247 6.735 3.3621 6.735 3.83333C6.735 4.30457 6.57784 4.6742 6.41349 4.8758C6.33657 4.97016 6.27499 5.00857 6.25001 5.02126C6.24485 5.02388 6.24097 5.02559 6.23831 5.02667H3.13669C3.13403 5.02559 3.13015 5.02388 3.12499 5.02126C3.10001 5.00857 3.03843 4.97016 2.96151 4.8758C2.79716 4.6742 2.64 4.30457 2.64 3.83333ZM18.265 3.83333C18.265 3.3621 18.4222 2.99247 18.5865 2.79087L16.5403 1.12276L18.5865 2.79087C18.6634 2.69651 18.725 2.6581 18.75 2.64541C18.7551 2.64278 18.759 2.64108 18.7617 2.64H46.8633C46.866 2.64108 46.8699 2.64278 46.875 2.64541C46.9 2.6581 46.9616 2.69651 47.0385 2.79086L49.0799 1.12668L47.0385 2.79087C47.2028 2.99247 47.36 3.36209 47.36 3.83333C47.36 4.30457 47.2028 4.6742 47.0385 4.8758L49.0847 6.54391L47.0385 4.8758C46.9616 4.97016 46.9 5.00857 46.875 5.02126C46.8699 5.02388 46.866 5.02559 46.8633 5.02667H18.7617C18.759 5.02559 18.7552 5.02388 18.75 5.02126C18.725 5.00857 18.6634 4.97016 18.5865 4.8758C18.4222 4.6742 18.265 4.30457 18.265 3.83333ZM2.64 23C2.64 22.5288 2.79716 22.1591 2.96151 21.9575C3.03843 21.8632 3.10001 21.8248 3.12499 21.8121C3.13015 21.8094 3.13403 21.8077 3.1367 21.8067H6.2383C6.24097 21.8077 6.24485 21.8094 6.25001 21.8121C6.27499 21.8248 6.33657 21.8632 6.41349 21.9575C6.57784 22.1591 6.735 22.5288 6.735 23C6.735 23.4712 6.57784 23.8409 6.41349 24.0425C6.33657 24.1368 6.27499 24.1752 6.25001 24.1879C6.24485 24.1905 6.24097 24.1923 6.2383 24.1933H3.13669C3.13403 24.1923 3.13015 24.1905 3.12499 24.1879C3.10001 24.1752 3.03843 24.1368 2.96151 24.0425C2.79716 23.8409 2.64 23.4712 2.64 23ZM18.265 23C18.265 22.5288 18.4222 22.1591 18.5865 21.9575L16.5403 20.2894L18.5865 21.9575C18.6634 21.8632 18.725 21.8248 18.75 21.8121C18.7552 21.8094 18.759 21.8077 18.7617 21.8067H46.8633C46.866 21.8077 46.8699 21.8095 46.875 21.8121C46.9 21.8248 46.9616 21.8632 47.0385 21.9575L49.0847 20.2894L47.0385 21.9575C47.2028 22.1591 47.36 22.5288 47.36 23C47.36 23.4712 47.2028 23.8409 47.0385 24.0425L49.0847 25.7106L47.0385 24.0425C46.9616 24.1368 46.9 24.1752 46.875 24.1879C46.8699 24.1905 46.866 24.1923 46.8633 24.1933H18.7617C18.759 24.1923 18.7551 24.1905 18.75 24.1879C18.725 24.1752 18.6634 24.1368 18.5865 24.0425L16.5403 25.7106L18.5865 24.0425C18.4222 23.8409 18.265 23.4712 18.265 23ZM2.64 42.1667C2.64 41.6954 2.79716 41.3258 2.96151 41.1242C3.03843 41.0298 3.10001 40.9914 3.12499 40.9787C3.13014 40.9761 3.13402 40.9744 3.13668 40.9733H6.23831C6.24098 40.9744 6.24485 40.9761 6.25001 40.9787C6.27499 40.9914 6.33657 41.0298 6.41349 41.1242C6.57784 41.3258 6.735 41.6954 6.735 42.1667C6.735 42.6379 6.57784 43.0075 6.41349 43.2091C6.33657 43.3035 6.27499 43.3419 6.25001 43.3546C6.24485 43.3572 6.24098 43.3589 6.23831 43.36H3.13669C3.13402 43.3589 3.13015 43.3572 3.12499 43.3546C3.10001 43.3419 3.03843 43.3035 2.96151 43.2091C2.79716 43.0075 2.64 42.6379 2.64 42.1667ZM18.265 42.1667C18.265 41.6954 18.4222 41.3258 18.5865 41.1242C18.6634 41.0298 18.725 40.9914 18.75 40.9787C18.7551 40.9761 18.759 40.9744 18.7617 40.9733H46.8633C46.866 40.9744 46.8699 40.9761 46.875 40.9787C46.9 40.9914 46.9616 41.0298 47.0385 41.1242C47.2028 41.3258 47.36 41.6954 47.36 42.1667C47.36 42.6379 47.2028 43.0075 47.0385 43.2091L49.0847 44.8772L47.0385 43.2091C46.9616 43.3035 46.9 43.3419 46.875 43.3546C46.8699 43.3572 46.866 43.3589 46.8633 43.36H18.7617C18.759 43.3589 18.7551 43.3572 18.75 43.3546C18.725 43.3419 18.6634 43.3035 18.5865 43.2091L16.5403 44.8772L18.5865 43.2091C18.4222 43.0075 18.265 42.6379 18.265 42.1667Z" fill="#333333" stroke="#333333" stroke-width="5.28"/>
</svg>