<svg width="47" height="47" viewBox="0 0 47 47" fill="none" xmlns="http://www.w3.org/2000/svg">
<path d="M46.275 2.60766L43.9524 0.285004L0.285034 43.9523L2.60769 46.275L5.89269 42.99H39.705C40.5759 42.9888 41.4108 42.6424 42.0266 42.0266C42.6424 41.4108 42.9889 40.5759 42.99 39.705V5.89266L46.275 2.60766ZM39.705 39.705H9.17769L21.9775 26.905L25.8847 30.812C26.5008 31.4281 27.3363 31.7741 28.2075 31.7741C29.0788 31.7741 29.9143 31.4281 30.5304 30.812L33.135 28.2075L39.705 34.7731V39.705ZM39.705 30.1263L35.4579 25.8789C34.8418 25.2629 34.0063 24.9168 33.135 24.9168C32.2638 24.9168 31.4283 25.2629 30.8122 25.8789L28.2075 28.4838L24.3033 24.5794L39.705 9.17766V30.1263Z" fill="#333333"/>
<path d="M6.85507 33.135V28.2075L15.0676 20.0006L17.3232 22.2562L19.6488 19.9305L17.3904 17.672C16.7743 17.056 15.9388 16.7099 15.0676 16.7099C14.1963 16.7099 13.3608 17.056 12.7447 17.672L6.85507 23.5619V6.85501H33.1351V3.57001H6.85507C5.9841 3.57088 5.14905 3.91725 4.53318 4.53312C3.91731 5.14899 3.57094 5.98404 3.57007 6.85501V33.135H6.85507Z" fill="#333333"/>
</svg>