<svg width="40" height="40" viewBox="0 0 40 40" fill="none" xmlns="http://www.w3.org/2000/svg">
<path d="M17.5784 30.7614C19.3096 30.7614 21.0239 30.4204 22.6233 29.7579C24.2228 29.0954 25.6761 28.1243 26.9002 26.9002C28.1244 25.676 29.0954 24.2228 29.7579 22.6233C30.4204 21.0239 30.7614 19.3096 30.7614 17.5784C30.7614 15.8472 30.4204 14.1329 29.7579 12.5335C29.0954 10.9341 28.1244 9.48079 26.9002 8.25664C25.6761 7.03249 24.2228 6.06143 22.6233 5.39893C21.0239 4.73642 19.3096 4.39543 17.5784 4.39543C14.0821 4.39543 10.7289 5.78435 8.25665 8.25664C5.78436 10.7289 4.39544 14.0821 4.39544 17.5784C4.39544 21.0748 5.78436 24.4279 8.25665 26.9002C10.7289 29.3725 14.0821 30.7614 17.5784 30.7614ZM31.4645 28.3577L39.3304 36.2235C39.5401 36.4264 39.7073 36.6689 39.8222 36.9371C39.9372 37.2052 39.9976 37.4936 39.9999 37.7853C40.0023 38.0771 39.9465 38.3663 39.8358 38.6363C39.7251 38.9062 39.5618 39.1514 39.3554 39.3576C39.1489 39.5637 38.9035 39.7267 38.6334 39.837C38.3633 39.9473 38.0739 40.0026 37.7822 39.9999C37.4905 39.9972 37.2022 39.9364 36.9342 39.821C36.6662 39.7057 36.4239 39.5381 36.2214 39.3281L28.3555 31.4623C24.8235 34.204 20.3794 35.4967 15.9278 35.0771C11.4763 34.6575 7.35195 32.5572 4.39445 29.2037C1.43695 25.8503 -0.131417 21.4958 0.0086327 17.0268C0.148682 12.5577 1.98662 8.30995 5.14829 5.14828C8.30996 1.98661 12.5577 0.148682 17.0268 0.00863269C21.4959 -0.131417 25.8503 1.43694 29.2038 4.39445C32.5572 7.35195 34.6575 11.4763 35.0771 15.9278C35.4967 20.3793 34.2041 24.8235 31.4623 28.3555L31.4645 28.3577Z" fill="#333333"/>
</svg>