<svg width="46" height="46" viewBox="0 0 46 46" fill="none" xmlns="http://www.w3.org/2000/svg">
<mask id="path-1-inside-1_18_427" fill="white">
<path d="M41.4943 24.5178C41.1256 24.0981 40.9223 23.5586 40.9223 23C40.9223 22.4414 41.1256 21.9019 41.4943 21.4822L44.4379 18.1707C44.7623 17.8088 44.9637 17.3536 45.0133 16.8702C45.0628 16.3868 44.958 15.9001 44.7139 15.48L40.1145 7.5231C39.8728 7.10346 39.5048 6.77082 39.0629 6.57261C38.6211 6.3744 38.128 6.32073 37.6538 6.41925L33.3304 7.29314C32.7803 7.40681 32.2076 7.31519 31.7204 7.03557C31.2332 6.75595 30.8651 6.30768 30.6858 5.77534L29.283 1.56691C29.1287 1.11015 28.8347 0.71342 28.4427 0.432806C28.0507 0.152191 27.5804 0.00188298 27.0983 0.00312748H17.8995C17.398 -0.0230477 16.9017 0.115643 16.4865 0.398016C16.0712 0.680389 15.7598 1.09092 15.5998 1.56691L14.312 5.77534C14.1326 6.30768 13.7646 6.75595 13.2774 7.03557C12.7902 7.31519 12.2175 7.40681 11.6673 7.29314L7.22895 6.41925C6.77948 6.35574 6.32127 6.42667 5.91203 6.6231C5.5028 6.81953 5.16085 7.13268 4.92927 7.5231L0.329892 15.48C0.0795945 15.8955 -0.0329475 16.3794 0.00835602 16.8626C0.0496595 17.3459 0.242693 17.8037 0.559861 18.1707L3.48046 21.4822C3.84915 21.9019 4.05247 22.4414 4.05247 23C4.05247 23.5586 3.84915 24.0981 3.48046 24.5178L0.559861 27.8293C0.242693 28.1963 0.0496595 28.6541 0.00835602 29.1374C-0.0329475 29.6206 0.0795945 30.1045 0.329892 30.52L4.92927 38.4769C5.17096 38.8965 5.53896 39.2292 5.9808 39.4274C6.42265 39.6256 6.91579 39.6793 7.38993 39.5807L11.7133 38.7069C12.2635 38.5932 12.8362 38.6848 13.3234 38.9644C13.8106 39.244 14.1786 39.6923 14.358 40.2247L15.7608 44.4331C15.9208 44.9091 16.2322 45.3196 16.6475 45.602C17.0627 45.8844 17.559 46.023 18.0605 45.9969H27.2592C27.7413 45.9981 28.2117 45.8478 28.6037 45.5672C28.9957 45.2866 29.2897 44.8898 29.4439 44.4331L30.8467 40.2247C31.0261 39.6923 31.3941 39.244 31.8813 38.9644C32.3685 38.6848 32.9413 38.5932 33.4914 38.7069L37.8148 39.5807C38.2889 39.6793 38.7821 39.6256 39.2239 39.4274C39.6658 39.2292 40.0338 38.8965 40.2755 38.4769L44.8748 30.52C45.119 30.0999 45.2238 29.6132 45.1742 29.1298C45.1247 28.6464 44.9232 28.1912 44.5989 27.8293L41.4943 24.5178ZM38.0678 27.5994L39.9075 29.6691L36.9639 34.7744L34.2503 34.2225C32.594 33.8839 30.8711 34.1653 29.4085 35.0131C27.946 35.861 26.8456 37.2163 26.3164 38.8218L25.4425 41.3975H19.5553L18.7274 38.7759C18.1981 37.1703 17.0978 35.815 15.6352 34.9671C14.1727 34.1193 12.4498 33.8379 10.7935 34.1765L8.07984 34.7284L5.09025 29.6461L6.92999 27.5764C8.06134 26.3115 8.6868 24.674 8.6868 22.977C8.6868 21.28 8.06134 19.6425 6.92999 18.3776L5.09025 16.3079L8.03384 11.2486L10.7475 11.8005C12.4038 12.1391 14.1267 11.8577 15.5892 11.0099C17.0518 10.162 18.1521 8.80669 18.6814 7.20115L19.5553 4.6025H25.4425L26.3164 7.22414C26.8456 8.82969 27.946 10.185 29.4085 11.0329C30.8711 11.8807 32.594 12.1621 34.2503 11.8235L36.9639 11.2716L39.9075 16.3769L38.0678 18.4466C36.9491 19.7086 36.3314 21.3366 36.3314 23.023C36.3314 24.7094 36.9491 26.3374 38.0678 27.5994ZM22.4989 13.8013C20.6795 13.8013 18.9011 14.3407 17.3883 15.3515C15.8756 16.3623 14.6966 17.7989 14.0003 19.4798C13.3041 21.1606 13.1219 23.0102 13.4769 24.7946C13.8318 26.579 14.7079 28.218 15.9944 29.5045C17.2808 30.791 18.9199 31.6671 20.7043 32.022C22.4887 32.3769 24.3382 32.1948 26.0191 31.4985C27.6999 30.8023 29.1366 29.6233 30.1474 28.1105C31.1581 26.5978 31.6976 24.8193 31.6976 23C31.6976 20.5603 30.7285 18.2206 29.0034 16.4955C27.2783 14.7704 24.9385 13.8013 22.4989 13.8013ZM22.4989 27.5994C21.5892 27.5994 20.7 27.3296 19.9436 26.8242C19.1872 26.3189 18.5977 25.6005 18.2496 24.7601C17.9015 23.9197 17.8104 22.9949 17.9879 22.1027C18.1653 21.2105 18.6034 20.391 19.2466 19.7478C19.8899 19.1045 20.7094 18.6665 21.6016 18.489C22.4938 18.3115 23.4186 18.4026 24.259 18.7507C25.0994 19.0988 25.8177 19.6884 26.3231 20.4447C26.8285 21.2011 27.0983 22.0903 27.0983 23C27.0983 24.2198 26.6137 25.3897 25.7511 26.2522C24.8886 27.1148 23.7187 27.5994 22.4989 27.5994Z"/>
</mask>
<path d="M41.4943 24.5178C41.1256 24.0981 40.9223 23.5586 40.9223 23C40.9223 22.4414 41.1256 21.9019 41.4943 21.4822L44.4379 18.1707C44.7623 17.8088 44.9637 17.3536 45.0133 16.8702C45.0628 16.3868 44.958 15.9001 44.7139 15.48L40.1145 7.5231C39.8728 7.10346 39.5048 6.77082 39.0629 6.57261C38.6211 6.3744 38.128 6.32073 37.6538 6.41925L33.3304 7.29314C32.7803 7.40681 32.2076 7.31519 31.7204 7.03557C31.2332 6.75595 30.8651 6.30768 30.6858 5.77534L29.283 1.56691C29.1287 1.11015 28.8347 0.71342 28.4427 0.432806C28.0507 0.152191 27.5804 0.00188298 27.0983 0.00312748H17.8995C17.398 -0.0230477 16.9017 0.115643 16.4865 0.398016C16.0712 0.680389 15.7598 1.09092 15.5998 1.56691L14.312 5.77534C14.1326 6.30768 13.7646 6.75595 13.2774 7.03557C12.7902 7.31519 12.2175 7.40681 11.6673 7.29314L7.22895 6.41925C6.77948 6.35574 6.32127 6.42667 5.91203 6.6231C5.5028 6.81953 5.16085 7.13268 4.92927 7.5231L0.329892 15.48C0.0795945 15.8955 -0.0329475 16.3794 0.00835602 16.8626C0.0496595 17.3459 0.242693 17.8037 0.559861 18.1707L3.48046 21.4822C3.84915 21.9019 4.05247 22.4414 4.05247 23C4.05247 23.5586 3.84915 24.0981 3.48046 24.5178L0.559861 27.8293C0.242693 28.1963 0.0496595 28.6541 0.00835602 29.1374C-0.0329475 29.6206 0.0795945 30.1045 0.329892 30.52L4.92927 38.4769C5.17096 38.8965 5.53896 39.2292 5.9808 39.4274C6.42265 39.6256 6.91579 39.6793 7.38993 39.5807L11.7133 38.7069C12.2635 38.5932 12.8362 38.6848 13.3234 38.9644C13.8106 39.244 14.1786 39.6923 14.358 40.2247L15.7608 44.4331C15.9208 44.9091 16.2322 45.3196 16.6475 45.602C17.0627 45.8844 17.559 46.023 18.0605 45.9969H27.2592C27.7413 45.9981 28.2117 45.8478 28.6037 45.5672C28.9957 45.2866 29.2897 44.8898 29.4439 44.4331L30.8467 40.2247C31.0261 39.6923 31.3941 39.244 31.8813 38.9644C32.3685 38.6848 32.9413 38.5932 33.4914 38.7069L37.8148 39.5807C38.2889 39.6793 38.7821 39.6256 39.2239 39.4274C39.6658 39.2292 40.0338 38.8965 40.2755 38.4769L44.8748 30.52C45.119 30.0999 45.2238 29.6132 45.1742 29.1298C45.1247 28.6464 44.9232 28.1912 44.5989 27.8293L41.4943 24.5178ZM38.0678 27.5994L39.9075 29.6691L36.9639 34.7744L34.2503 34.2225C32.594 33.8839 30.8711 34.1653 29.4085 35.0131C27.946 35.861 26.8456 37.2163 26.3164 38.8218L25.4425 41.3975H19.5553L18.7274 38.7759C18.1981 37.1703 17.0978 35.815 15.6352 34.9671C14.1727 34.1193 12.4498 33.8379 10.7935 34.1765L8.07984 34.7284L5.09025 29.6461L6.92999 27.5764C8.06134 26.3115 8.6868 24.674 8.6868 22.977C8.6868 21.28 8.06134 19.6425 6.92999 18.3776L5.09025 16.3079L8.03384 11.2486L10.7475 11.8005C12.4038 12.1391 14.1267 11.8577 15.5892 11.0099C17.0518 10.162 18.1521 8.80669 18.6814 7.20115L19.5553 4.6025H25.4425L26.3164 7.22414C26.8456 8.82969 27.946 10.185 29.4085 11.0329C30.8711 11.8807 32.594 12.1621 34.2503 11.8235L36.9639 11.2716L39.9075 16.3769L38.0678 18.4466C36.9491 19.7086 36.3314 21.3366 36.3314 23.023C36.3314 24.7094 36.9491 26.3374 38.0678 27.5994ZM22.4989 13.8013C20.6795 13.8013 18.9011 14.3407 17.3883 15.3515C15.8756 16.3623 14.6966 17.7989 14.0003 19.4798C13.3041 21.1606 13.1219 23.0102 13.4769 24.7946C13.8318 26.579 14.7079 28.218 15.9944 29.5045C17.2808 30.791 18.9199 31.6671 20.7043 32.022C22.4887 32.3769 24.3382 32.1948 26.0191 31.4985C27.6999 30.8023 29.1366 29.6233 30.1474 28.1105C31.1581 26.5978 31.6976 24.8193 31.6976 23C31.6976 20.5603 30.7285 18.2206 29.0034 16.4955C27.2783 14.7704 24.9385 13.8013 22.4989 13.8013ZM22.4989 27.5994C21.5892 27.5994 20.7 27.3296 19.9436 26.8242C19.1872 26.3189 18.5977 25.6005 18.2496 24.7601C17.9015 23.9197 17.8104 22.9949 17.9879 22.1027C18.1653 21.2105 18.6034 20.391 19.2466 19.7478C19.8899 19.1045 20.7094 18.6665 21.6016 18.489C22.4938 18.3115 23.4186 18.4026 24.259 18.7507C25.0994 19.0988 25.8177 19.6884 26.3231 20.4447C26.8285 21.2011 27.0983 22.0903 27.0983 23C27.0983 24.2198 26.6137 25.3897 25.7511 26.2522C24.8886 27.1148 23.7187 27.5994 22.4989 27.5994Z" fill="#333333" stroke="#333333" stroke-width="10.56" mask="url(#path-1-inside-1_18_427)"/>
</svg>